<svg width="58" height="58" viewBox="0 0 58 58" fill="none" xmlns="http://www.w3.org/2000/svg">
<path d="M47.125 35.042H44.7083C41.6367 35.042 39.875 36.8037 39.875 39.8753V42.292C39.875 45.3636 41.6367 47.1253 44.7083 47.1253H47.125C50.1966 47.1253 51.9583 45.3636 51.9583 42.292V39.8753C51.9583 36.8037 50.1966 35.042 47.125 35.042Z" fill="#FF6952"/>
<path d="M13.292 35.042H10.8753C7.80374 35.042 6.04199 36.8037 6.04199 39.8753V42.292C6.04199 45.3636 7.80374 47.1253 10.8753 47.1253H13.292C16.3636 47.1253 18.1253 45.3636 18.1253 42.292V39.8753C18.1253 36.8037 16.3636 35.042 13.292 35.042Z" fill="#FF6952"/>
<path d="M30.208 10.875H27.7913C24.7198 10.875 22.958 12.6367 22.958 15.7083V18.125C22.958 21.1966 24.7198 22.9583 27.7913 22.9583H30.208C33.2796 22.9583 35.0413 21.1966 35.0413 18.125V15.7083C35.0413 12.6367 33.2796 10.875 30.208 10.875Z" fill="#FF6952"/>
<path opacity="0.4" d="M40.5876 18.7295H45.9163C46.9168 18.7295 47.7288 17.9175 47.7288 16.917C47.7288 15.9165 46.9168 15.1045 45.9163 15.1045H33.833C32.8325 15.1045 32.0205 15.9165 32.0205 16.917C32.0205 16.9967 32.0567 17.0668 32.0664 17.1441C31.9069 18.077 32.4797 18.9905 33.415 19.2129C42.7167 21.4193 44.1038 30.8346 44.1038 36.2503C44.1038 37.2508 44.9158 38.0628 45.9163 38.0628C46.9168 38.0628 47.7288 37.2508 47.7288 36.2503C47.7288 28.3406 45.1696 22.2941 40.5876 18.7295Z" fill="#FF6952"/>
<path opacity="0.4" d="M24.1663 15.1045H12.083C11.0825 15.1045 10.2705 15.9165 10.2705 16.917C10.2705 17.9175 11.0825 18.7295 12.083 18.7295H17.4118C12.8298 22.2941 10.2705 28.3406 10.2705 36.2503C10.2705 37.2508 11.0825 38.0628 12.083 38.0628C13.0835 38.0628 13.8955 37.2508 13.8955 36.2503C13.8955 30.8346 15.285 21.4193 24.5844 19.2129C25.5196 18.9905 26.0925 18.0794 25.933 17.1441C25.9426 17.0668 25.9788 16.9967 25.9788 16.917C25.9788 15.9165 25.1668 15.1045 24.1663 15.1045Z" fill="#FF6952"/>
<path d="M49.5413 21.7497C52.2107 21.7497 54.3747 19.5857 54.3747 16.9163C54.3747 14.247 52.2107 12.083 49.5413 12.083C46.872 12.083 44.708 14.247 44.708 16.9163C44.708 19.5857 46.872 21.7497 49.5413 21.7497Z" fill="#FF6952"/>
<path d="M8.45833 21.7497C11.1277 21.7497 13.2917 19.5857 13.2917 16.9163C13.2917 14.247 11.1277 12.083 8.45833 12.083C5.78896 12.083 3.625 14.247 3.625 16.9163C3.625 19.5857 5.78896 21.7497 8.45833 21.7497Z" fill="#FF6952"/>
</svg>
