<svg width="58" height="58" viewBox="0 0 58 58" fill="none" xmlns="http://www.w3.org/2000/svg">
<path d="M53.1663 48.9375H51.958V26.5833C51.958 23.3692 50.3388 21.75 47.1247 21.75H43.4997V48.9375H33.833V43.5C33.833 40.832 31.6701 38.6667 28.9997 38.6667C26.3317 38.6667 24.1663 40.832 24.1663 43.5V48.9375H14.4997V21.75H10.8747C7.66051 21.75 6.04134 23.3692 6.04134 26.5833V48.9375H4.83301C3.83251 48.9375 3.02051 49.7495 3.02051 50.75C3.02051 51.7505 3.83251 52.5625 4.83301 52.5625H53.1663C54.1668 52.5625 54.9788 51.7505 54.9788 50.75C54.9788 49.7495 54.1668 48.9375 53.1663 48.9375Z" fill="#FF6952"/>
<path opacity="0.4" d="M14.5 50.75V21.75V14.5C14.5 9.66667 16.9167 7.25 21.75 7.25H36.25C41.0833 7.25 43.5 9.66667 43.5 14.5V21.75V50.75H14.5Z" fill="#FF6952"/>
<path d="M25.3747 18.7295H22.958C21.9575 18.7295 21.1455 17.9175 21.1455 16.917C21.1455 15.9165 21.9575 15.1045 22.958 15.1045H25.3747C26.3752 15.1045 27.1872 15.9165 27.1872 16.917C27.1872 17.9175 26.3752 18.7295 25.3747 18.7295ZM36.8538 16.917C36.8538 15.9165 36.0418 15.1045 35.0413 15.1045H32.6247C31.6242 15.1045 30.8122 15.9165 30.8122 16.917C30.8122 17.9175 31.6242 18.7295 32.6247 18.7295H35.0413C36.0418 18.7295 36.8538 17.9175 36.8538 16.917ZM27.1872 24.167C27.1872 23.1665 26.3752 22.3545 25.3747 22.3545H22.958C21.9575 22.3545 21.1455 23.1665 21.1455 24.167C21.1455 25.1675 21.9575 25.9795 22.958 25.9795H25.3747C26.3752 25.9795 27.1872 25.1675 27.1872 24.167ZM36.8538 24.167C36.8538 23.1665 36.0418 22.3545 35.0413 22.3545H32.6247C31.6242 22.3545 30.8122 23.1665 30.8122 24.167C30.8122 25.1675 31.6242 25.9795 32.6247 25.9795H35.0413C36.0418 25.9795 36.8538 25.1675 36.8538 24.167ZM27.1872 31.417C27.1872 30.4165 26.3752 29.6045 25.3747 29.6045H22.958C21.9575 29.6045 21.1455 30.4165 21.1455 31.417C21.1455 32.4175 21.9575 33.2295 22.958 33.2295H25.3747C26.3752 33.2295 27.1872 32.4175 27.1872 31.417ZM36.8538 31.417C36.8538 30.4165 36.0418 29.6045 35.0413 29.6045H32.6247C31.6242 29.6045 30.8122 30.4165 30.8122 31.417C30.8122 32.4175 31.6242 33.2295 32.6247 33.2295H35.0413C36.0418 33.2295 36.8538 32.4175 36.8538 31.417Z" fill="#FF6952"/>
</svg>
