<svg width="64" height="64" viewBox="0 0 64 64" fill="none" xmlns="http://www.w3.org/2000/svg">
<path d="M56.6346 26.2345C55.2693 16.4878 47.512 8.72771 37.7653 7.36505C36.8426 7.23438 35.8747 7.51995 35.152 8.14662C34.4214 8.78395 34 9.70114 34 10.6665V26.688C34 28.5146 35.488 29.9998 37.312 29.9998H53.3333C54.296 29.9998 55.2159 29.5811 55.8506 28.8504C56.4799 28.1277 56.7653 27.1732 56.6346 26.2345Z" fill="#FF6952"/>
<path opacity="0.4" d="M50.6164 36.2744C50.0004 35.5197 49.0884 35.0849 48.1151 35.0849H32.2456C30.4083 35.0849 28.9123 33.5889 28.9123 31.7516V15.8824C28.9123 14.9118 28.4802 13.9995 27.7256 13.3808C26.9949 12.7835 26.0456 12.5462 25.1336 12.7275C19.3949 13.8822 14.2377 17.3622 10.9923 22.2822C7.70967 27.2555 6.58437 33.2771 7.82437 39.2317C9.57103 47.6157 16.3789 54.4209 24.7656 56.1702C26.3469 56.5009 27.9337 56.6637 29.5044 56.6637C33.8457 56.6637 38.0617 55.4184 41.7124 53.0078C46.6324 49.7598 50.1122 44.6048 51.2669 38.8662C51.4562 37.9515 51.219 37.005 50.6164 36.2744Z" fill="#FF6952"/>
</svg>
