<svg width="64" height="64" viewBox="0 0 64 64" fill="none" xmlns="http://www.w3.org/2000/svg">
<path opacity="0.4" d="M55.9997 56H11.9997C7.88767 56 5.33301 53.4453 5.33301 49.3333V10.6667C5.33301 9.19467 6.52767 8 7.99967 8C9.47167 8 10.6663 9.19467 10.6663 10.6667V49.3333C10.6663 50.5307 10.8023 50.6667 11.9997 50.6667H55.9997C57.4717 50.6667 58.6663 51.8613 58.6663 53.3333C58.6663 54.8053 57.4717 56 55.9997 56Z" fill="#FF6952"/>
<path d="M34.667 45.3333C33.195 45.3333 32.0003 44.1387 32.0003 42.6667V32C32.0003 30.528 33.195 29.3333 34.667 29.3333C36.139 29.3333 37.3337 30.528 37.3337 32V42.6667C37.3337 44.1387 36.139 45.3333 34.667 45.3333ZM50.667 42.6667V26.6667C50.667 25.1947 49.4723 24 48.0003 24C46.5283 24 45.3337 25.1947 45.3337 26.6667V42.6667C45.3337 44.1387 46.5283 45.3333 48.0003 45.3333C49.4723 45.3333 50.667 44.1387 50.667 42.6667ZM24.0003 42.6667V37.3333C24.0003 35.8613 22.8057 34.6667 21.3337 34.6667C19.8617 34.6667 18.667 35.8613 18.667 37.3333V42.6667C18.667 44.1387 19.8617 45.3333 21.3337 45.3333C22.8057 45.3333 24.0003 44.1387 24.0003 42.6667Z" fill="#FF6952"/>
<path d="M50.4614 9.64811C50.192 8.99745 49.672 8.4774 49.0187 8.2054C48.6933 8.0694 48.3467 8 48 8H40C38.528 8 37.3333 9.19467 37.3333 10.6667C37.3333 12.1387 38.528 13.3333 40 13.3333H41.5627L36.448 18.4479C36.192 18.7012 35.7467 18.7039 35.4854 18.4479L32.4187 15.3812C30.0747 13.0345 26.256 13.0345 23.9146 15.3812L19.448 19.848C18.4053 20.8906 18.4053 22.5761 19.448 23.6188C19.968 24.1388 20.6507 24.4001 21.3334 24.4001C22.016 24.4001 22.6987 24.1388 23.2187 23.6188L27.6853 19.152C27.9467 18.8907 28.3894 18.8907 28.648 19.152L31.7147 22.2187C34.0587 24.5627 37.8747 24.5627 40.2187 22.2187L45.3333 17.1038V18.6667C45.3333 20.1387 46.528 21.3333 48 21.3333C49.472 21.3333 50.6667 20.1387 50.6667 18.6667V10.6667C50.6667 10.32 50.5947 9.97345 50.4614 9.64811Z" fill="#FF6952"/>
</svg>
