<svg width="50" height="50" viewBox="0 0 50 50" fill="none" xmlns="http://www.w3.org/2000/svg">
<path opacity="0.4" d="M35.2916 6.52037C39.2916 7.54121 42.4791 10.7495 43.4791 14.7495C44.1457 17.4162 43.6041 20.2912 42.0624 22.5829C39.4582 26.4579 38.2707 30.187 38.1249 33.7703C38.0207 36.4787 37.0207 39.1245 35.0207 40.937C33.3124 42.4578 31.2082 43.3954 28.9999 43.687C24.6874 44.2704 20.75 41.6037 18.6666 37.7704C17.4375 35.4995 15.0833 33.3329 11.6249 31.4579C9.27078 30.187 7.37493 28.0828 6.6666 25.4995C5.5416 21.437 6.81236 16.9787 9.97903 14.1245C11.5832 12.687 13.6874 11.8954 15.8332 11.7704C20.0207 11.5204 23.9374 10.5204 27.3749 8.10373C29.6666 6.49956 32.5833 5.85373 35.3124 6.54123L35.2916 6.52037Z" fill="white"/>
<path d="M23.9587 31.2503C19.9378 31.2503 16.667 27.9795 16.667 23.9587C16.667 19.9378 19.9378 16.667 23.9587 16.667C27.9795 16.667 31.2503 19.9378 31.2503 23.9587C31.2503 27.9795 27.9795 31.2503 23.9587 31.2503Z" fill="white"/>
</svg>
