<svg width="147" height="147" viewBox="0 0 147 147" fill="none" xmlns="http://www.w3.org/2000/svg">
<path d="M86.2015 134.299C119.78 127.284 141.313 94.377 134.299 60.7989C127.284 27.2208 94.3766 5.68702 60.7985 12.7018C27.2204 19.7167 5.68664 52.6237 12.7015 86.2018C19.7163 119.78 52.6234 141.314 86.2015 134.299Z" fill="white" stroke="#263238" stroke-miterlimit="10"/>
<path d="M66.5941 93.4475C92.5177 93.4475 113.533 73.9775 113.533 49.9601C113.533 25.9426 92.5177 6.47266 66.5941 6.47266C40.6705 6.47266 19.6553 25.9426 19.6553 49.9601C19.6553 73.9775 40.6705 93.4475 66.5941 93.4475Z" fill="#263238"/>
<path d="M60.7959 87.3174L62.3283 110.373L86.9298 122.287L86.1705 98.4584L60.7959 87.3174Z" fill="#E7E8E9" stroke="#263238" stroke-miterlimit="10"/>
<path d="M72.1299 99.1494L86.8742 111.685V102.477L72.1299 99.1494Z" fill="#263238"/>
<path d="M53.479 55.4826C53.479 55.4826 53.479 81.0228 59.0012 89.9964C64.5234 98.97 82.4706 104.492 92.1345 103.112C101.798 101.731 96.9664 50.6507 92.1345 41.6771C87.3025 32.7035 52.0984 36.1549 53.479 55.4826Z" fill="#E7E8E9" stroke="#263238" stroke-miterlimit="10"/>
<path d="M73.4968 135.609C81.6973 135.609 89.525 134.008 96.6901 131.123L62.3281 110.387L38.2236 124.62C48.2465 131.551 60.3953 135.623 73.4968 135.623V135.609Z" fill="#263238"/>
<path d="M57.6206 68.5972C57.6206 68.5972 49.3372 56.1723 46.5761 63.7653C43.815 71.3583 45.1956 78.2611 49.3372 79.6417C53.4789 81.0222 58.3108 76.8806 58.3108 76.8806" fill="#E7E8E9"/>
<path d="M57.6206 68.5972C57.6206 68.5972 49.3372 56.1723 46.5761 63.7653C43.815 71.3583 45.1956 78.2611 49.3372 79.6417C53.4789 81.0222 58.3108 76.8806 58.3108 76.8806" stroke="#263238" stroke-miterlimit="10"/>
<path d="M72.9996 62.3711C73.5866 62.3711 74.0626 60.8135 74.0626 58.8921C74.0626 56.9707 73.5866 55.4131 72.9996 55.4131C72.4125 55.4131 71.9365 56.9707 71.9365 58.8921C71.9365 60.8135 72.4125 62.3711 72.9996 62.3711Z" fill="#263238"/>
<path d="M92.6036 57.7046C92.6036 59.6236 92.1342 61.1836 91.5406 61.1836C90.9469 61.1836 90.4775 59.6236 90.4775 57.7046C90.4775 55.7856 90.9469 54.2256 91.5406 54.2256C92.1342 54.2256 92.6036 55.7856 92.6036 57.7046Z" fill="#263238"/>
<path d="M88.4756 51.5614C88.4756 51.5614 93.0866 48.8693 95.0056 52.721L88.4756 51.5614Z" fill="white"/>
<path d="M92.7002 51.2578L92.7282 51.3138C92.7282 51.3138 92.7282 51.2718 92.7002 51.2578Z" fill="#263238"/>
<path d="M92.0645 51.1199H92.0783L92.0645 51.0371V51.1199Z" fill="#263238"/>
<path d="M91.4717 51.2163C91.4717 51.2163 91.5269 51.2025 91.5545 51.2025C91.4993 51.2163 91.4717 51.1197 91.4717 51.2163Z" fill="#263238"/>
<path d="M94.9637 52.7207L94.8809 52.7621C94.8809 52.7621 94.9361 52.7345 94.9499 52.7207H94.9637Z" fill="#263238"/>
<path d="M94.5908 52.7487C94.5908 52.7487 94.6322 52.7487 94.6461 52.7487C94.6737 52.7487 94.7013 52.7487 94.7289 52.7487L94.8117 52.6797L94.5908 52.7211V52.7487Z" fill="#263238"/>
<path d="M91.0299 51.1338L91.002 51.2038C91.002 51.2038 91.0299 51.1618 91.0299 51.1338Z" fill="#263238"/>
<path d="M91.209 50.1533C91.209 50.1533 91.237 50.1953 91.2649 50.1953L91.209 50.1533Z" fill="#263238"/>
<path d="M92.0785 50.1943H92.0645L92.0924 50.2643L92.0785 50.1943Z" fill="#263238"/>
<path d="M92.8378 50.2228C92.8378 50.2228 92.7688 50.2228 92.7412 50.209C92.8102 50.209 92.824 50.3194 92.8378 50.2228Z" fill="#263238"/>
<path d="M88.3926 51.4095C88.3926 51.4095 88.4206 51.4515 88.4485 51.4655L88.3926 51.3955V51.4095Z" fill="#263238"/>
<path d="M88.434 51.1338C88.434 51.1338 88.434 51.1752 88.4064 51.189C88.4064 51.2166 88.4064 51.2442 88.3926 51.2718L88.4616 51.3409L88.434 51.1338Z" fill="#263238"/>
<path d="M91.4019 50.291C91.4019 50.291 91.4571 50.3324 91.4848 50.2634C91.4709 50.2358 91.4295 50.2634 91.4019 50.291ZM89.7314 50.7742C89.7314 50.7742 89.7867 50.7742 89.8005 50.7742C89.7729 50.7742 89.7453 50.7742 89.7314 50.7742ZM94.0388 51.6992C94.0388 51.6992 94.0112 51.6578 93.9974 51.6439C93.9974 51.6716 94.0112 51.6992 94.0388 51.6992Z" fill="#263238"/>
<path d="M93.335 50.4987L93.3909 50.4707C93.3909 50.4707 93.349 50.4707 93.335 50.4987Z" fill="#263238"/>
<path d="M58.3799 113.934L60.7959 102.752L91.5132 118.311L93.018 128.292L58.3799 113.934Z" fill="#FF6952"/>
<path d="M75.623 75.2383C75.623 75.2383 77.1416 80.0702 80.7587 80.6777C84.3895 81.2851 91.0438 80.3739 93.4598 79.7665" stroke="#263238" stroke-width="0.75" stroke-miterlimit="10" stroke-linecap="round"/>
<path d="M87.4131 54.0742C87.4131 54.0742 86.502 58.9062 87.4131 60.121C88.3243 61.3359 93.1562 66.7753 93.1562 68.8876C93.1562 70.9998 91.3477 72.2147 86.502 71.6072" stroke="#263238" stroke-width="0.75" stroke-miterlimit="10" stroke-linecap="round"/>
<path d="M67.4502 53.4669C67.4502 53.4669 70.7773 49.2286 77.4316 50.4435" stroke="#263238" stroke-width="0.75" stroke-miterlimit="10" stroke-linecap="round"/>
<path d="M88.4619 51.3404C88.4619 51.3404 91.8581 47.6682 94.9229 52.0721" stroke="#263238" stroke-width="0.75" stroke-miterlimit="10" stroke-linecap="round"/>
</svg>
