<svg width="128" height="128" viewBox="0 0 128 128" fill="none" xmlns="http://www.w3.org/2000/svg">
<path d="M31.8128 95.4377C14.2431 77.8681 14.2431 49.382 31.8128 31.8123C49.3825 14.2426 77.8686 14.2426 95.4382 31.8123C113.008 49.382 113.008 77.8681 95.4382 95.4377C77.8686 113.007 49.3825 113.007 31.8128 95.4377Z" fill="white" stroke="#263238" stroke-miterlimit="10"/>
<path d="M95.1218 95.7229C87.0018 103.693 75.8918 108.603 63.6218 108.603C51.3518 108.603 40.7518 103.903 32.6918 96.2629C39.3318 91.2429 50.4818 85.2229 65.5318 85.6429C82.2918 86.1029 91.0718 91.8329 95.1318 95.7229H95.1218Z" fill="#263238"/>
<path d="M46.8017 31.7129C46.8017 31.7129 40.9517 31.7929 35.8617 41.9629C30.7717 52.1329 34.4417 63.8329 35.3617 67.0729C36.2817 70.3129 38.1317 77.2429 38.1317 77.2429H96.3817C96.3817 77.2429 102.422 48.9129 92.2517 37.3529C82.0817 25.7929 46.7917 31.7129 46.7917 31.7129H46.8017Z" fill="#263238"/>
<path d="M74.5221 70.5029C74.5221 70.5029 74.9821 74.2029 74.5221 78.3629C74.0621 82.5229 74.0621 88.0729 74.0621 88.0729C74.0621 88.0729 71.2921 91.7729 65.7421 94.0829C60.1921 96.3929 57.4221 95.0029 55.5721 92.2329C53.7221 89.4629 53.2621 78.8229 53.2621 78.8229C53.2621 78.8229 70.8321 74.6629 74.5321 70.5029H74.5221Z" fill="white" stroke="#263238" stroke-miterlimit="10"/>
<path d="M65.6621 82.4424L55.5621 92.2324L53.3221 83.1824L65.6621 82.4424Z" fill="#263238"/>
<path d="M43.8818 56.9221C43.0518 67.3421 44.1318 86.9521 58.3318 86.4921C66.5518 86.2221 81.1318 70.6921 81.1318 56.9121C81.1318 43.1321 72.7518 31.9521 62.4118 31.9521C49.4618 31.9521 44.8818 45.6621 43.9318 56.4221C43.9218 56.5921 43.9018 56.7621 43.8918 56.9321L43.8818 56.9221Z" fill="white" stroke="#263238" stroke-miterlimit="10"/>
<path d="M41.3817 39.7926C41.3817 39.7926 47.3917 22.6826 64.5017 22.6826C81.6117 22.6826 90.1117 32.6326 93.8117 39.5626C101.602 52.5826 96.4017 77.2326 96.4017 77.2326L72.4817 77.5526L72.9217 53.1526C70.9517 51.8726 68.5017 50.7526 65.4217 49.9626C51.0917 46.2626 41.3817 39.7926 41.3817 39.7926Z" fill="#263238"/>
<path d="M63.8313 60.0924C63.8313 61.3924 64.3213 62.4524 64.9313 62.4524C65.5413 62.4524 66.0312 61.3924 66.0312 60.0924C66.0312 58.7924 65.5413 57.7324 64.9313 57.7324C64.3213 57.7324 63.8313 58.7924 63.8313 60.0924Z" fill="#263238"/>
<path d="M48.7613 60.5022C48.1538 60.5022 47.6613 59.4456 47.6613 58.1422C47.6613 56.8388 48.1538 55.7822 48.7613 55.7822C49.3688 55.7822 49.8613 56.8388 49.8613 58.1422C49.8613 59.4456 49.3688 60.5022 48.7613 60.5022Z" fill="#263238"/>
<path d="M52.282 62.2021C52.282 62.2021 52.5119 64.2821 51.5919 66.3621C50.6719 68.4421 54.132 69.5921 55.752 67.5221" stroke="#263238" stroke-width="0.75" stroke-miterlimit="10" stroke-linecap="round"/>
<path d="M62.4414 72.8329C62.4414 72.8329 59.2114 75.1429 55.2814 75.1429C51.3514 75.1429 48.3514 72.3729 47.8914 71.2129" stroke="#263238" stroke-width="0.75" stroke-miterlimit="10" stroke-linecap="round"/>
<path d="M69.6113 56.4326C69.6113 56.4326 68.2213 54.8126 63.8313 53.8926" stroke="#263238" stroke-width="0.75" stroke-miterlimit="10" stroke-linecap="round"/>
<path d="M50.8916 52.273C50.8916 52.273 47.8916 51.1129 45.8116 52.5029" stroke="#263238" stroke-width="0.75" stroke-miterlimit="10" stroke-linecap="round"/>
</svg>
