<svg width="1206" height="6" viewBox="0 0 1206 6" fill="none" xmlns="http://www.w3.org/2000/svg">
<path d="M0.333333 3C0.333333 4.47276 1.52724 5.66667 3 5.66667C4.47276 5.66667 5.66667 4.47276 5.66667 3C5.66667 1.52724 4.47276 0.333333 3 0.333333C1.52724 0.333333 0.333333 1.52724 0.333333 3ZM1200.33 3C1200.33 4.47276 1201.53 5.66667 1203 5.66667C1204.47 5.66667 1205.67 4.47276 1205.67 3C1205.67 1.52724 1204.47 0.333333 1203 0.333333C1201.53 0.333333 1200.33 1.52724 1200.33 3ZM3 3.5H1203V2.5H3V3.5Z" fill="white" fill-opacity="0.25"/>
</svg>
