<svg width="50" height="50" viewBox="0 0 50 50" fill="none" xmlns="http://www.w3.org/2000/svg">
<path opacity="0.4" d="M25.0003 39.5837C33.0545 39.5837 39.5837 33.0545 39.5837 25.0003C39.5837 16.9462 33.0545 10.417 25.0003 10.417C16.9462 10.417 10.417 16.9462 10.417 25.0003C10.417 33.0545 16.9462 39.5837 25.0003 39.5837Z" fill="white"/>
<path d="M25.0003 30.2087C27.8768 30.2087 30.2087 27.8768 30.2087 25.0003C30.2087 22.1238 27.8768 19.792 25.0003 19.792C22.1238 19.792 19.792 22.1238 19.792 25.0003C19.792 27.8768 22.1238 30.2087 25.0003 30.2087Z" fill="white"/>
<path d="M45.3125 25C45.3125 25.8542 44.6041 26.5625 43.75 26.5625H39.5C39.5625 26.0417 39.5833 25.5208 39.5833 25C39.5833 24.4792 39.5625 23.9583 39.5 23.4375H43.75C44.6041 23.4375 45.3125 24.1458 45.3125 25Z" fill="white"/>
<path d="M10.4167 25C10.4167 25.5208 10.4375 26.0417 10.5 26.5625H6.25C5.39583 26.5625 4.6875 25.8542 4.6875 25C4.6875 24.1458 5.39583 23.4375 6.25 23.4375H10.5C10.4375 23.9583 10.4167 24.4792 10.4167 25Z" fill="white"/>
<path d="M26.5625 6.25V10.5001C26.0417 10.4376 25.5208 10.4167 25 10.4167C24.4792 10.4167 23.9583 10.4376 23.4375 10.5001V6.25C23.4375 5.39583 24.1458 4.6875 25 4.6875C25.8542 4.6875 26.5625 5.39583 26.5625 6.25Z" fill="white"/>
<path d="M26.5625 39.5V43.7501C26.5625 44.6042 25.8542 45.3126 25 45.3126C24.1458 45.3126 23.4375 44.6042 23.4375 43.7501V39.5C23.9583 39.5625 24.4792 39.5834 25 39.5834C25.5208 39.5834 26.0417 39.5625 26.5625 39.5Z" fill="white"/>
</svg>
