<svg width="50" height="50" viewBox="0 0 50 50" fill="none" xmlns="http://www.w3.org/2000/svg">
<path d="M39.5833 18.75H35.4167V25.6938C35.4167 28.9354 33.7958 30.5542 30.5562 30.5542H18.7602L18.75 30.5603V35.4146C18.75 38.1855 20.1458 39.5813 22.9167 39.5813H39.5833L43.75 43.748V22.9146C43.75 20.1459 42.3542 18.75 39.5833 18.75Z" fill="white"/>
<path opacity="0.4" d="M35.4166 25.6938V18.75V11.1104C35.4166 7.87085 33.7957 6.25 30.5562 6.25H11.1124C7.8728 6.25 6.25195 7.87085 6.25195 11.1104V35.4167L11.1124 30.5562H18.7626H30.5582C33.7957 30.5562 35.4166 28.9354 35.4166 25.6938Z" fill="white"/>
<path d="M27.3145 16.7246H14.3496C13.4871 16.7246 12.7871 16.0246 12.7871 15.1621C12.7871 14.2996 13.4871 13.5996 14.3496 13.5996H27.3145C28.177 13.5996 28.877 14.2996 28.877 15.1621C28.877 16.0246 28.177 16.7246 27.3145 16.7246ZM24.0145 21.6435C24.0145 20.781 23.3145 20.081 22.452 20.081H14.3496C13.4871 20.081 12.7871 20.781 12.7871 21.6435C12.7871 22.506 13.4871 23.206 14.3496 23.206H22.452C23.3145 23.206 24.0145 22.506 24.0145 21.6435Z" fill="white"/>
</svg>
