<svg width="64" height="64" viewBox="0 0 64 64" fill="none" xmlns="http://www.w3.org/2000/svg">
<path opacity="0.4" d="M56 18.667V31.9469C56 32.5069 55.4666 32.8537 54.9333 32.6937C53.5999 32.2404 52.16 32.0003 50.6667 32.0003C43.3067 32.0003 37.3333 37.9737 37.3333 45.3337C37.3333 45.8403 37.3601 46.347 37.4134 46.8537C37.4401 46.9603 37.4666 47.067 37.4666 47.1737C37.4666 47.627 37.0933 48.0003 36.64 48.0003H16C10.6667 48.0003 8 45.3337 8 40.0003V18.667C8 13.3337 10.6667 10.667 16 10.667H48C53.3333 10.667 56 13.3337 56 18.667Z" fill="#FF6952"/>
<path d="M32 37.333C36.4183 37.333 40 33.7513 40 29.333C40 24.9147 36.4183 21.333 32 21.333C27.5817 21.333 24 24.9147 24 29.333C24 33.7513 27.5817 37.333 32 37.333Z" fill="#FF6952"/>
<path d="M15.9997 31.9974C17.4724 31.9974 18.6663 30.8035 18.6663 29.3307C18.6663 27.858 17.4724 26.6641 15.9997 26.6641C14.5269 26.6641 13.333 27.858 13.333 29.3307C13.333 30.8035 14.5269 31.9974 15.9997 31.9974Z" fill="#FF6952"/>
<path d="M57.4138 46.5866C56.6325 45.8053 55.3657 45.8053 54.5844 46.5866L52.6644 48.5067V40C52.6644 38.896 51.7684 38 50.6644 38C49.5605 38 48.6645 38.896 48.6645 40V48.5041L46.7444 46.584C45.963 45.8027 44.6964 45.8027 43.9151 46.584C43.1338 47.3653 43.1338 48.6321 43.9151 49.4134L49.2484 54.7467C49.6378 55.1361 50.1497 55.3333 50.6617 55.3333C51.1737 55.3333 51.6858 55.1387 52.0751 54.7467L57.4084 49.4134C58.1951 48.6347 58.1951 47.3653 57.4138 46.5866Z" fill="#FF6952"/>
</svg>
