<svg width="108" height="170" viewBox="0 0 108 170" fill="none" xmlns="http://www.w3.org/2000/svg">
<g clip-path="url(#clip0_18_1495)">
<path d="M6.41484 33.6881C9.44576 34.9968 16.8743 34.8332 16.8853 34.8332C16.9624 34.8332 15.2872 30.0238 15.1439 29.7293C13.5127 26.3594 8.36565 20.7865 4.16645 21.3536C1.14655 21.7571 -0.528726 24.7453 0.143588 27.559C0.837944 30.4382 3.82478 32.5648 6.40382 33.6881H6.41484Z" fill="white"/>
<path d="M8.97176 54.9765C12.1239 55.4345 18.7479 53.526 19.2769 53.3733C20.3239 57.0486 21.7016 60.7238 23.2998 64.3773C24.2145 66.4712 25.1955 68.5433 26.2094 70.6154C25.6033 69.743 25.0632 68.9577 24.975 68.8596C22.5062 66.035 16.0476 62.0107 12.157 63.6466C9.34649 64.8244 8.5309 68.1507 9.94166 70.6809C11.3745 73.2655 14.8242 74.5524 17.6126 74.9559C20.4452 75.3595 26.1323 73.8544 27.6312 73.44C28.028 74.2252 28.4137 75.0214 28.8105 75.8066C30.7283 79.5909 32.657 83.3534 34.4425 87.105C35.0708 88.4246 35.6439 89.7551 36.217 91.0748C35.6769 90.3004 35.2251 89.6461 35.1369 89.5588C32.6681 86.7342 26.2094 82.71 22.3188 84.3458C19.5083 85.5237 18.6928 88.85 20.1035 91.3801C21.5473 93.9648 24.9861 95.2517 27.7745 95.6552C30.4748 96.0478 35.732 94.6955 37.5175 94.2047C38.0686 95.5788 38.6197 96.953 39.0826 98.3053C39.3802 99.2323 39.7329 100.116 39.9753 101.064C40.2399 102.002 40.5044 102.929 40.7579 103.845C41.1877 105.634 41.6506 107.477 42.0253 109.233C42.3009 110.454 42.5323 111.621 42.7748 112.788C42.1686 111.469 40.9122 108.906 40.7909 108.699C38.785 105.536 33.0207 100.585 28.9207 101.621C25.967 102.362 24.6444 105.525 25.6473 108.241C26.6723 111.011 29.8796 112.799 32.5799 113.617C35.5557 114.511 42.1245 113.693 42.9511 113.584C43.3479 115.526 43.7116 117.423 44.0202 119.223C44.7256 123.181 45.2547 126.726 45.6624 129.736H48.4399C47.9549 126.628 47.3267 122.931 46.4891 118.765C46.0923 116.791 45.6404 114.686 45.1444 112.527C45.6404 112.33 48.4399 111.207 50.9307 109.833C53.091 112.156 58.6458 114.871 59.3622 115.209C58.6127 117.042 57.8523 118.83 57.1138 120.499C55.5818 123.989 54.127 127.097 52.8375 129.725H55.8353C56.9375 127.293 58.1609 124.523 59.4283 121.458C60.1998 119.593 60.9934 117.587 61.7869 115.526C62.5805 115.689 69.0942 116.998 72.1251 116.322C74.8805 115.711 78.209 114.162 79.4434 111.469C80.6448 108.829 79.5647 105.579 76.677 104.62C72.6652 103.289 66.5482 107.793 64.2999 110.803C64.1676 110.978 62.9442 113.061 62.2058 114.391C62.5254 113.541 62.845 112.723 63.1646 111.85C63.8039 110.127 64.388 108.382 65.0273 106.506C65.3028 105.59 65.5784 104.663 65.8649 103.736C66.1625 102.82 66.3609 101.806 66.6144 100.835C67.1655 98.567 67.5953 96.2441 67.9921 93.8994C69.5241 94.4446 74.9797 96.3314 77.8123 96.1351C80.6227 95.9388 84.1607 94.9136 85.7918 92.438C87.39 90.0169 86.8168 86.6361 84.1055 85.251C80.3472 83.3316 73.602 86.8651 70.9238 89.5043C70.7585 89.6679 69.0501 91.7727 68.1354 92.9506C68.3558 91.5328 68.5872 90.1259 68.7746 88.6864C69.2926 84.5313 69.6894 80.3216 70.1082 76.112C70.2294 74.8251 70.3727 73.5382 70.516 72.2622C71.0561 72.4694 77.4926 74.836 80.6668 74.6179C83.4773 74.4216 87.0152 73.3964 88.6464 70.9208C90.2445 68.4997 89.6714 65.1189 86.9601 63.7338C83.2018 61.8144 76.4566 65.3479 73.7784 67.9871C73.58 68.1834 71.1222 71.2152 70.538 72.0223C70.8356 69.1977 71.1663 66.384 71.6071 63.6139C72.2023 59.7968 73.0069 56.0889 74.0429 52.5554C74.2964 52.6535 81.0085 55.151 84.2488 54.9328C87.0593 54.7365 90.5972 53.7114 92.2284 51.2358C93.8265 48.8147 93.2534 45.4339 90.5421 44.0488C86.7838 42.1294 80.0386 45.6629 77.3604 48.3021C77.151 48.5093 74.5168 51.7702 74.076 52.4027C74.1421 52.1955 74.1751 51.9665 74.2413 51.7593C75.3985 47.9967 77.0077 44.496 78.6719 41.3006C79.6308 39.4357 80.6558 37.7126 81.6918 36.0549C82.8932 36.6438 88.415 39.3048 91.3577 39.4139C94.1792 39.5229 97.8053 38.8904 99.69 36.6111C101.542 34.3754 101.354 30.9618 98.8193 29.2933C95.2924 26.9812 88.2056 29.7622 85.2518 32.0961C85.0865 32.2269 83.5986 33.6883 82.5295 34.768C83.0034 34.0264 83.4883 33.2521 83.9623 32.5541C85.7367 29.9149 87.5112 27.6138 89.1093 25.5744C90.0241 24.4293 90.8838 23.4041 91.6884 22.4662C93.1763 22.4444 99.161 22.259 101.773 21.0484C104.33 19.8597 107.251 17.6458 107.868 14.7558C108.474 11.9203 106.711 8.9757 103.68 8.65943C99.4696 8.21229 94.4768 13.916 92.9338 17.3296C92.8015 17.624 91.2585 22.4771 91.3357 22.4771C91.3357 22.4771 91.4128 22.4771 91.4238 22.4771C90.6303 23.3714 89.7816 24.342 88.8889 25.4108C87.2467 27.4065 85.4061 29.6859 83.5655 32.2924C81.7249 34.8988 79.7961 37.778 78.0437 40.9843C76.2803 44.2015 74.594 47.6805 73.3265 51.4866C73.3155 51.5302 73.3044 51.5739 73.2934 51.6175C73.3155 50.396 73.2604 46.9607 73.2273 46.6989C72.7423 42.991 69.6012 36.1094 65.4461 35.346C62.4482 34.8007 59.9133 37.1236 59.6708 40.0028C59.4283 42.9473 61.5886 45.8919 63.6937 47.7568C66.0633 49.8507 72.6542 51.8901 73.1832 52.0428C72.0039 55.6744 71.1001 59.5024 70.3948 63.4176C69.987 65.6533 69.6563 67.9217 69.3477 70.201C69.3367 69.1431 69.3147 68.1943 69.2926 68.0635C68.8077 64.3555 65.6665 57.4739 61.5114 56.7105C58.5136 56.1652 55.9786 58.4881 55.7361 61.3673C55.4937 64.3119 57.6539 67.2564 59.759 69.1213C61.8972 71.008 67.4741 72.8511 68.962 73.3201C68.8518 74.1925 68.7305 75.065 68.6313 75.9484C68.1243 80.1471 67.6394 84.3459 67.0332 88.4464C66.8238 89.8969 66.5593 91.3038 66.2948 92.7215C66.2837 91.7836 66.2617 90.9875 66.2396 90.8675C65.7547 87.1596 62.6136 80.278 58.4584 79.5146C55.4606 78.9693 52.9256 81.2922 52.6832 84.1714C52.4407 87.1159 54.6009 90.0605 56.706 91.9254C58.745 93.7249 63.881 95.4698 65.6445 96.0369C65.3359 97.4765 65.0273 98.9269 64.6636 100.312C64.388 101.25 64.2007 102.177 63.87 103.104C63.5724 104.031 63.2638 104.947 62.9773 105.852C62.338 107.586 61.6988 109.364 61.0375 111.043C60.5856 112.21 60.1337 113.312 59.6818 114.424C59.9133 112.985 60.299 110.171 60.299 109.931C60.3541 107.444 59.4614 103.409 57.6869 100.574C57.6869 100.203 57.6869 99.843 57.6208 99.4831C57.1579 96.6258 54.4466 94.4992 51.5039 95.2844C47.4149 96.3641 44.8248 103.464 44.6264 107.194C44.6154 107.412 44.7587 109.822 44.8799 111.327C44.6705 110.443 44.4831 109.593 44.2627 108.688C43.8329 106.899 43.3479 105.121 42.8409 103.213C42.5654 102.297 42.2788 101.381 41.9923 100.443C41.7278 99.5159 41.331 98.5671 41.0003 97.6182C40.1958 95.4262 39.27 93.2559 38.278 91.0748C39.8651 90.704 45.4641 89.2862 47.7125 87.574C49.9498 85.8727 52.3305 83.0917 52.3084 80.1362C52.2864 77.2462 49.9278 74.7378 46.8969 75.065C42.6866 75.5121 39.0385 82.1429 38.278 85.8072C38.2339 86.0363 37.9804 88.7191 37.8702 90.2023C37.264 88.9045 36.6799 87.5958 36.0186 86.298C34.1339 82.5464 32.117 78.8166 30.1221 75.0868C29.5049 73.9417 28.9097 72.7966 28.3146 71.6515C28.8767 71.5206 35.5777 69.9829 38.0907 68.0744C40.328 66.3731 42.7087 63.5921 42.6866 60.6366C42.6646 57.7465 40.306 55.2382 37.2751 55.5654C33.0648 56.0125 29.4167 62.6433 28.6562 66.3076C28.6011 66.5803 28.2484 70.4518 28.2043 71.4443C26.8818 68.925 25.5812 66.3949 24.4019 63.8538C22.7707 60.353 21.371 56.8196 20.2688 53.297C20.5333 53.2424 27.521 51.6611 30.1 49.709C32.3374 48.0076 34.7181 45.2267 34.696 42.2712C34.674 39.3811 32.3154 36.8728 29.2844 37.2C25.0742 37.6471 21.4261 44.2779 20.6656 47.9422C20.6105 48.2258 20.2247 52.3918 20.2137 53.1552C20.1476 52.948 20.0594 52.7408 19.9933 52.5227C18.8691 48.7492 18.2519 44.954 17.8551 41.3769C17.6237 39.2939 17.5135 37.2981 17.4473 35.346C18.7809 35.1824 24.8648 34.3863 27.3777 32.8704C29.7914 31.4199 32.4586 28.9225 32.7673 25.9779C33.0648 23.0987 31.0038 20.3505 27.9508 20.3505C23.7186 20.3505 19.354 26.5341 18.1858 30.0894C18.1196 30.2857 17.7008 32.3142 17.4143 33.8083C17.4032 32.9249 17.3702 32.0197 17.3702 31.18C17.3702 28.0173 17.5796 25.1163 17.778 22.5535C17.8992 21.0921 18.0425 19.7834 18.1968 18.551C19.4202 17.7222 24.3137 14.2977 25.8237 11.8548C27.2896 9.46646 28.4909 6.03113 27.3998 3.28286C26.3307 0.589121 23.2116 -0.904977 20.5113 0.480063C16.753 2.39949 15.761 9.89179 16.3893 13.578C16.4444 13.8942 17.8661 18.78 17.9323 18.7364C17.9323 18.7364 17.9874 18.6928 18.0094 18.6819C17.8441 19.8597 17.6788 21.1357 17.5355 22.5207C17.282 25.0836 17.0065 27.9846 16.9403 31.1691C16.8522 34.3427 16.8522 37.7998 17.1828 41.4314C17.5135 45.074 18.0425 48.891 19.1006 52.7626C19.1116 52.8062 19.1336 52.8498 19.1446 52.8935C18.4833 51.8574 16.5215 49.0328 16.3452 48.8256C13.8763 46.001 7.41773 41.9767 3.52712 43.6126C0.716634 44.7904 -0.0989595 48.1167 1.3118 50.6469C2.75562 53.2315 6.19433 54.5184 8.98278 54.9219L8.97176 54.9765Z" fill="white"/>
<path d="M81.5265 35.3021C81.5926 35.3457 82.8821 30.4163 82.9262 30.1C83.4442 26.403 82.2539 18.9434 78.4404 17.1221C75.6961 15.8134 72.6321 17.3838 71.6291 20.1103C70.6041 22.8913 71.9047 26.2939 73.4367 28.6386C75.2332 31.3869 81.5265 35.3021 81.5265 35.313V35.3021Z" fill="white"/>
<path d="M71.9044 169.454H31.3231L26.2422 124.85H76.9853L71.9044 169.454Z" fill="white" stroke="white" stroke-linecap="round" stroke-linejoin="round"/>
<path d="M27.168 133.029L27.6639 137.348H75.5635L76.0485 133.029H27.168Z" fill="#2D553B"/>
<path d="M74.4831 146.858L74.968 142.528H28.2588L28.7437 146.858H74.4831Z" fill="#2D553B"/>
</g>
<defs>
<clipPath id="clip0_18_1495">
<rect width="108" height="170" fill="white"/>
</clipPath>
</defs>
</svg>
