<svg width="262" height="302" viewBox="0 0 262 302" fill="none" xmlns="http://www.w3.org/2000/svg">
<g clip-path="url(#clip0_18_1543)">
<path d="M0.47168 96.6063L41.5555 108.267L55.335 95.7734L0.47168 96.6063Z" fill="white" stroke="#263238" stroke-linecap="round" stroke-linejoin="round"/>
<path d="M40.2345 117.221L6.50293 99.5596L39.3756 111.192L40.2345 117.221Z" fill="white" stroke="#263238" stroke-linecap="round" stroke-linejoin="round"/>
<path d="M41.5555 108.267L40.2341 117.221L39.3753 111.192L0.47168 96.6064L41.5555 108.267Z" fill="white" stroke="#263238" stroke-linecap="round" stroke-linejoin="round"/>
<path d="M39.3753 111.192L29.4937 128.853L0.47168 96.6064L39.3753 111.192Z" fill="white" stroke="#263238" stroke-linecap="round" stroke-linejoin="round"/>
<path d="M46.4912 116.964C46.4912 116.964 64.6028 124.233 88.9813 113.832C113.369 103.43 139.305 89.3749 162.655 90.416C186.004 91.4571 203.644 101.338 207.797 117.476C211.95 133.603 196.905 146.087 193.272 137.247C189.638 128.398 197.943 108.115 217.66 110.188C237.376 112.27 258.13 132.562 243.605 166.9" stroke="#263238" stroke-linecap="round" stroke-linejoin="round"/>
<path d="M78.1092 245.212L61.4982 297.362C60.847 299.426 62.376 301.527 64.5278 301.527C65.6321 301.527 66.6608 300.95 67.2365 300.013L95.0882 254.677L78.0997 245.212H78.1092Z" fill="#263238" stroke="#263238" stroke-linecap="round" stroke-linejoin="round"/>
<path d="M185.929 245.212L202.54 297.362C203.191 299.426 201.662 301.527 199.511 301.527C198.406 301.527 197.378 300.95 196.802 300.013L168.95 254.677L185.939 245.212H185.929Z" fill="#263238" stroke="#263238" stroke-linecap="round" stroke-linejoin="round"/>
<path d="M203.918 214.717C198.793 214.234 191.47 217.935 185.75 218.039C178.992 218.162 172.461 216.723 166.921 212.72C156.454 205.148 148.611 193.686 141.335 183.218C122.931 156.717 101.223 102.295 101.223 102.295C101.119 102.011 101.034 101.746 100.949 101.472C96.1925 95.859 93.1441 95.1303 86.1222 98.0359C78.0998 101.349 69.6056 107.974 69.6056 107.974L69.5395 107.908C51.5978 124.509 40.3477 148.284 40.3477 174.7C40.3477 224.882 80.9124 265.561 130.953 265.561C164.666 265.561 194.084 247.086 209.685 219.686C209.27 216.326 206.608 214.972 203.909 214.717H203.918Z" fill="#FF6952"/>
<path d="M230.968 196.288C230.968 196.288 231.789 200.415 242.199 203.708C252.609 207.002 260.556 208.11 261.377 213.05C262.198 218 259.735 222.117 251.788 224.862C243.841 227.607 226.032 223.764 217.538 221.843C209.043 219.921 192.876 215.246 192.876 215.246C192.876 215.246 227.674 200.405 230.968 196.288Z" fill="#263238" stroke="#263238" stroke-linecap="round" stroke-linejoin="round"/>
<path d="M261.387 213.051C260.943 210.41 258.461 208.867 254.667 207.495C244.058 206.122 232.705 209.34 226.032 208.1C221.587 207.277 218.444 205.659 216.632 204.504C205.797 209.738 192.876 215.246 192.876 215.246C192.876 215.246 209.043 219.922 217.538 221.843C226.032 223.765 243.841 227.617 251.788 224.862C259.735 222.118 262.198 217.991 261.377 213.051H261.387Z" fill="white" stroke="#263238" stroke-linecap="round" stroke-linejoin="round"/>
<path d="M126.017 212.502C126.017 212.502 140.816 221.569 152.594 223.49C164.373 225.412 176.435 223.765 192.329 218.54C208.222 213.316 224.116 204.249 236.168 196.554C248.23 188.859 260.556 176.772 260.282 166.049C260.009 155.335 245.484 152.581 239.453 152.855C233.422 153.13 229.59 157.256 213.97 161.922C198.35 166.598 178.077 167.147 169.3 165.491C160.532 163.844 150.943 162.471 150.943 162.471C150.943 162.471 156.153 173.734 152.859 185.281C149.574 196.819 143.543 202.043 139.976 203.416C136.418 204.788 125.998 212.483 125.998 212.483L126.017 212.502Z" fill="white" stroke="#263238" stroke-linecap="round" stroke-linejoin="round"/>
<path d="M153.963 159.745V162.764C153.963 162.764 157.795 166.332 162.183 169.91C166.572 173.478 171.499 180.35 171.499 180.35C171.499 180.35 181.088 180.075 187.94 180.624C194.792 181.173 201.096 183.369 201.096 183.369L229.599 157.54L228.778 153.139L206.854 155.334L182.192 142.689L161.089 160L153.963 159.726V159.745Z" fill="#263238" stroke="#263238" stroke-linecap="round" stroke-linejoin="round"/>
<path d="M204.928 150.394C204.928 150.394 198.624 145.719 193.697 142.425C188.761 139.131 182.466 136.651 182.466 136.651L153.963 159.736C153.963 159.736 165.742 166.333 172.32 176.223L204.928 150.394Z" fill="white" stroke="#263238" stroke-linecap="round" stroke-linejoin="round"/>
<path d="M204.929 150.394L172.32 176.224C172.32 176.224 183.825 176.224 187.667 177.047C191.508 177.87 199.728 178.694 199.728 178.694L228.779 153.139C228.779 153.139 215.622 147.915 204.938 150.394H204.929Z" fill="white" stroke="#263238" stroke-linecap="round" stroke-linejoin="round"/>
<path d="M184.042 143.258C184.042 143.258 194.141 146.495 197.369 151.88" stroke="#263238" stroke-linecap="round" stroke-linejoin="round"/>
<path d="M177.379 147.782C177.379 147.782 187.478 151.019 190.705 156.405" stroke="#263238" stroke-linecap="round" stroke-linejoin="round"/>
<path d="M170.716 152.306C170.716 152.306 180.815 155.543 184.042 160.928" stroke="#263238" stroke-linecap="round" stroke-linejoin="round"/>
<path d="M164.052 156.83C164.052 156.83 174.15 160.067 177.378 165.452" stroke="#263238" stroke-linecap="round" stroke-linejoin="round"/>
<path d="M204.031 153.821C204.031 153.821 208.76 152.316 219.717 155.325" stroke="#263238" stroke-linecap="round" stroke-linejoin="round"/>
<path d="M197.793 158.988C197.793 158.988 202.304 156.612 213.271 159.631" stroke="#263238" stroke-linecap="round" stroke-linejoin="round"/>
<path d="M191.347 163.304C191.347 163.304 195.858 160.929 206.825 163.948" stroke="#263238" stroke-linecap="round" stroke-linejoin="round"/>
<path d="M184.9 167.611C184.9 167.611 189.412 165.235 200.379 168.254" stroke="#263238" stroke-linecap="round" stroke-linejoin="round"/>
<path d="M156.427 157.814H164.373C165.742 157.814 171.499 156.442 173.415 154.52C175.331 152.599 182.457 153.697 183.278 151.501C184.099 149.305 177.521 149.031 175.605 149.305C173.689 149.58 171.49 150.129 171.49 150.129C171.49 150.129 172.584 144.904 173.406 144.081C174.227 143.257 182.447 139.405 183.816 138.582C185.184 137.758 183.816 136.112 180.805 136.935C177.794 137.758 172.311 137.758 172.311 137.758C172.311 137.758 176.426 136.386 176.426 135.288C176.426 134.19 171.49 135.288 169.3 136.112C167.11 136.935 164.364 137.209 164.364 137.209C164.364 137.209 160.249 138.582 157.786 140.503C155.322 142.425 150.934 151.217 150.934 151.217L156.417 157.814H156.427Z" fill="white" stroke="#263238" stroke-linecap="round" stroke-linejoin="round"/>
<path d="M173.727 137.645C173.727 137.645 170.074 137.645 165.771 140.228" stroke="#263238" stroke-linecap="round" stroke-linejoin="round"/>
<path d="M148.753 17.9448V25.3652C148.753 31.9621 150.395 42.4016 153.142 44.8719C155.888 47.3422 159.72 48.1657 157.53 51.4688C155.341 54.7626 152.321 55.3115 152.321 55.3115C152.321 55.3115 149.036 67.1235 149.036 72.897C149.036 78.6704 153.151 82.5131 146.025 83.8855C138.9 85.2579 131.774 79.2099 131.774 79.2099L127.385 87.1792L112.039 78.661C112.039 78.661 116.701 71.5151 115.05 64.3693C113.398 57.2234 102.988 45.4114 102.167 39.9124C101.346 34.4134 97.5044 23.1504 110.114 16.0046C122.723 8.85871 126.555 7.48633 133.133 7.48633C139.711 7.48633 148.206 13.8088 148.753 17.9259V17.9448Z" fill="white" stroke="#263238" stroke-linecap="round" stroke-linejoin="round"/>
<path d="M109.019 5.57457C109.019 5.57457 90.1146 16.0142 89.5672 26.1887C89.0198 36.3538 100.251 50.92 104.366 54.7721C108.481 58.6148 115.05 64.3883 115.05 64.3883C115.05 64.3883 117.513 63.2904 119.712 60.8201C121.902 58.3498 121.902 52.8508 120.26 50.3805C118.617 47.9102 115.324 42.6857 117.523 41.0388C119.712 39.392 122.459 38.2941 124.375 40.7644C126.291 43.2347 126.838 46.5378 126.838 46.5378C126.838 46.5378 129.849 44.0676 129.575 42.1368C129.301 40.2154 126.291 37.1867 126.291 35.5398C126.291 33.893 130.406 34.1675 130.679 29.4919C130.953 24.8163 129.037 20.4247 129.037 20.4247C129.037 20.4247 143.015 24.8258 141.92 19.8758C140.825 14.9257 136.984 12.7299 136.984 12.7299C136.984 12.7299 150.141 22.6205 152.33 20.1502C154.52 17.6799 151.509 7.77985 139.995 2.29032C128.49 -3.20868 109.028 5.58404 109.028 5.58404L109.019 5.57457Z" fill="#263238" stroke="#263238" stroke-linecap="round" stroke-linejoin="round"/>
<path d="M144.921 40.7548C144.921 42.8749 144.364 44.5975 143.685 44.5975C143.005 44.5975 142.448 42.8749 142.448 40.7548C142.448 38.6347 142.996 36.9121 143.685 36.9121C144.374 36.9121 144.921 38.6347 144.921 40.7548Z" fill="#263238"/>
<path d="M146.016 83.8951C153.142 82.5228 149.027 78.6706 149.027 72.9066C149.027 67.1426 152.311 55.3212 152.311 55.3212C152.311 55.3212 148.753 54.2233 142.448 57.517C136.144 60.8107 127.65 67.6821 127.376 70.9853C127.102 74.279 131.765 79.229 131.765 79.229C131.765 79.229 131.868 79.3142 132.029 79.4467C133.36 80.4973 139.683 85.1256 146.007 83.9046L146.016 83.8951Z" fill="#263238" stroke="#263238" stroke-linecap="round" stroke-linejoin="round"/>
<path d="M141.08 60.8105C141.08 60.8105 142.722 64.3787 147.932 64.9372" stroke="white" stroke-linecap="round" stroke-linejoin="round"/>
<path d="M139.334 34.6214C139.334 34.6214 140.835 29.8796 145.355 31.8198" stroke="#263238" stroke-linecap="round" stroke-linejoin="round"/>
<path d="M127.725 47.7681C127.725 47.7681 125.573 40.4424 123.214 39.1458C120.845 37.8491 115.691 40.4424 115.691 44.5312C115.691 48.6199 120.42 55.7374 122.996 57.0341C125.573 58.3307 127.291 56.5987 127.291 56.5987" fill="white"/>
<path d="M127.725 47.7681C127.725 47.7681 125.573 40.4424 123.214 39.1458C120.845 37.8491 115.691 40.4424 115.691 44.5312C115.691 48.6199 120.42 55.7374 122.996 57.0341C125.573 58.3307 127.291 56.5987 127.291 56.5987" stroke="#263238" stroke-linecap="round" stroke-linejoin="round"/>
<path d="M121.486 59.7131C128.372 59.7131 133.954 53.8695 133.954 46.6612C133.954 39.4529 128.372 33.6094 121.486 33.6094C114.601 33.6094 109.019 39.4529 109.019 46.6612C109.019 53.8695 114.601 59.7131 121.486 59.7131Z" fill="#FF6952"/>
<path d="M121.486 54.5262C125.635 54.5262 128.999 51.0049 128.999 46.6611C128.999 42.3173 125.635 38.7959 121.486 38.7959C117.337 38.7959 113.974 42.3173 113.974 46.6611C113.974 51.0049 117.337 54.5262 121.486 54.5262Z" fill="#FF6952" stroke="#263238" stroke-linecap="round" stroke-linejoin="round"/>
<path d="M119.712 46.7937L107.924 4.20252L112.313 2.55566L122.723 46.2448L119.712 46.7937Z" fill="white" stroke="#263238" stroke-linecap="round" stroke-linejoin="round"/>
<path d="M109.849 79.5034C109.849 79.5034 95.5978 91.8738 91.766 113.027C87.9341 134.181 97.2495 180.075 107.66 195.191C118.07 210.306 126.564 214.423 129.584 214.972C132.595 215.521 150.14 209.198 156.709 204.258C163.287 199.308 166.846 190.789 167.119 182.271C167.393 173.753 163.561 167.705 158.899 159.736C154.236 151.766 137.248 119.34 134.237 108.352C131.226 97.3633 134.237 99.2847 126.564 88.0122C118.891 76.7492 109.849 79.4939 109.849 79.4939V79.5034Z" fill="white" stroke="#263238" stroke-linecap="round" stroke-linejoin="round"/>
<path d="M143.005 175.958C143.005 175.958 155.614 180.085 172.055 178.977C188.496 177.879 206.853 171.008 206.853 171.008C206.853 171.008 208.222 167.714 210.411 164.137C212.601 160.568 216.989 158.912 218.084 157.54C219.179 156.167 220.274 151.492 221.642 154.246C223.011 157 222.464 159.196 221.095 160.294C219.726 161.392 219.453 162.49 219.453 162.49C219.453 162.49 223.285 160.019 226.852 158.363C230.41 156.716 233.157 153.962 234.799 151.492C236.441 149.021 237.262 149.296 237.262 151.766C237.262 154.236 234.799 160.01 234.799 160.01C234.799 160.01 234.252 164.137 233.704 167.979C233.157 171.822 229.589 175.125 224.663 177.321C219.726 179.517 202.464 184.467 199.18 185.565C195.895 186.663 165.75 196.553 153.415 198.758C141.079 200.954 133.689 200.954 130.943 199.856C128.206 198.758 121.08 184.192 121.08 184.192C121.08 184.192 136.426 182.545 143.005 175.949V175.958Z" fill="white" stroke="#263238" stroke-linecap="round" stroke-linejoin="round"/>
<path d="M105.187 111.929C105.187 111.929 107.924 137.758 110.396 158.098C112.869 178.437 114.511 186.956 114.511 186.956C114.511 186.956 123.279 187.505 131.5 184.485C139.72 181.466 147.941 174.046 147.941 174.046C147.941 174.046 134.784 126.23 129.858 111.938C124.921 97.6467 120.542 92.1571 112.869 93.804C105.196 95.4509 105.47 106.449 105.47 106.449" fill="white"/>
<path d="M105.187 111.929C105.187 111.929 107.924 137.758 110.396 158.098C112.869 178.437 114.511 186.956 114.511 186.956C114.511 186.956 123.279 187.505 131.5 184.485C139.72 181.466 147.941 174.046 147.941 174.046C147.941 174.046 134.784 126.23 129.858 111.938C124.921 97.6467 120.542 92.1571 112.869 93.804C105.196 95.4509 105.47 106.449 105.47 106.449" stroke="#263238" stroke-linecap="round" stroke-linejoin="round"/>
<path d="M110.671 72.9062L132.038 84.4437L135.606 98.461L107.65 79.7776L110.671 72.9062Z" fill="white" stroke="#263238" stroke-linecap="round" stroke-linejoin="round"/>
</g>
<defs>
<clipPath id="clip0_18_1543">
<rect width="262" height="302" fill="white"/>
</clipPath>
</defs>
</svg>
