<svg width="222" height="83" viewBox="0 0 222 83" fill="none" xmlns="http://www.w3.org/2000/svg">
<g clip-path="url(#clip0_18_1607)">
<path d="M217.269 8.32297L182.242 21.0051L169.483 11.0176L217.269 8.32297Z" fill="white" stroke="#263238" stroke-linecap="round" stroke-linejoin="round"/>
<path d="M183.949 28.691L212.196 11.2543L184.321 23.4067L183.949 28.691Z" fill="white" stroke="#263238" stroke-linecap="round" stroke-linejoin="round"/>
<path d="M182.243 21.0051L183.95 28.6906L184.321 23.4063L217.269 8.323L182.243 21.0051Z" fill="white" stroke="#263238" stroke-linecap="round" stroke-linejoin="round"/>
<path d="M184.321 23.4067L194.018 38.1122L217.269 8.32338L184.321 23.4067Z" fill="white" stroke="#263238" stroke-linecap="round" stroke-linejoin="round"/>
<path d="M177.82 26.431C177.82 26.431 162.515 33.8681 140.658 26.3659C118.791 18.856 95.3436 8.29024 75.0934 10.6513C54.8433 13.0124 40.1114 22.6865 37.5031 36.9462C34.8942 51.1977 48.7604 61.0892 51.3714 53.1929C53.9818 45.2884 45.493 28.2099 28.4684 31.2392C11.4445 34.2767 -5.34896 53.1777 9.42623 82.0617" stroke="#FCFCFC" stroke-linecap="round" stroke-linejoin="round"/>
</g>
<defs>
<clipPath id="clip0_18_1607">
<rect width="217.643" height="67.3995" fill="white" transform="translate(0 15.5781) rotate(-4.10464)"/>
</clipPath>
</defs>
</svg>
