<svg width="58" height="58" viewBox="0 0 58 58" fill="none" xmlns="http://www.w3.org/2000/svg">
<path opacity="0.4" d="M48.3337 9.0625V31.4167C48.3337 36.9508 45.4095 39.875 39.8753 39.875H18.1253C12.5912 39.875 9.66699 36.9508 9.66699 31.4167V9.0625H48.3337Z" fill="#FF6952"/>
<path d="M50.75 9.0625H7.25C6.2495 9.0625 5.4375 8.2505 5.4375 7.25C5.4375 6.2495 6.2495 5.4375 7.25 5.4375H50.75C51.7505 5.4375 52.5625 6.2495 52.5625 7.25C52.5625 8.2505 51.7505 9.0625 50.75 9.0625Z" fill="#FF6952"/>
<path d="M37.748 51.7651C37.4097 52.2726 36.8297 52.5625 36.2497 52.5625C35.9113 52.5625 35.5488 52.4658 35.2347 52.2483L28.9997 48.0917L22.7647 52.2483C21.9188 52.8042 20.8072 52.5868 20.2513 51.7651C19.6955 50.9193 19.913 49.8075 20.7347 49.2517L27.1872 44.9499V39.875H30.8122V44.9499L37.2647 49.2517C38.0863 49.8075 38.3038 50.9193 37.748 51.7651Z" fill="#FF6952"/>
<path d="M19.3334 28.638C18.8694 28.638 18.4054 28.4616 18.0525 28.1064C17.3445 27.3983 17.3445 26.2503 18.0525 25.5422L23.4465 20.1484C24.9086 18.6887 27.2842 18.6887 28.7415 20.146L31.813 23.2126L37.3859 17.8113C38.094 17.1033 39.2419 17.1033 39.95 17.8113C40.6581 18.5194 40.6581 19.6674 39.95 20.3755L34.5487 25.7767C33.0915 27.2364 30.7159 27.2387 29.2562 25.7814L26.1846 22.7149L20.619 28.1087C20.2614 28.4616 19.7974 28.638 19.3334 28.638Z" fill="#FF6952"/>
</svg>
