<svg width="50" height="50" viewBox="0 0 50 50" fill="none" xmlns="http://www.w3.org/2000/svg">
<path opacity="0.4" d="M41.6663 7.8125V27.0833C41.6663 31.8542 39.1455 34.375 34.3747 34.375H15.6247C10.8538 34.375 8.33301 31.8542 8.33301 27.0833V7.8125H41.6663Z" fill="white"/>
<path d="M43.75 7.8125H6.25C5.3875 7.8125 4.6875 7.1125 4.6875 6.25C4.6875 5.3875 5.3875 4.6875 6.25 4.6875H43.75C44.6125 4.6875 45.3125 5.3875 45.3125 6.25C45.3125 7.1125 44.6125 7.8125 43.75 7.8125Z" fill="white"/>
<path d="M32.5412 44.6251C32.2495 45.0626 31.7495 45.3125 31.2495 45.3125C30.9579 45.3125 30.6454 45.2292 30.3746 45.0417L24.9995 41.4584L19.6245 45.0417C18.8953 45.5208 17.937 45.3334 17.4579 44.6251C16.9787 43.8959 17.1662 42.9375 17.8746 42.4583L23.437 38.7499V34.375H26.562V38.7499L32.1245 42.4583C32.8328 42.9375 33.0204 43.8959 32.5412 44.6251Z" fill="white"/>
<path d="M24.9566 15.1706L29.6212 19.8352L21.2899 28.1248H16.667V23.5019L24.9566 15.1706ZM32.7878 14.0664L30.7253 12.0039C29.9961 11.2747 28.8294 11.2747 28.1003 12.0039L26.4128 13.7124L31.0774 18.377L32.7857 16.6894C33.5149 15.9623 33.5149 14.7956 32.7878 14.0664Z" fill="white"/>
</svg>
