<svg width="32" height="32" viewBox="0 0 32 32" fill="none" xmlns="http://www.w3.org/2000/svg">
<path d="M10.787 15.5063H4.53366C4.64033 9.27964 5.86699 8.25297 9.69366 5.9863C10.1337 5.71964 10.2803 5.15964 10.0137 4.7063C9.76033 4.2663 9.18699 4.11964 8.74699 4.3863C4.24033 7.05297 2.66699 8.67964 2.66699 16.4263V23.613C2.66699 25.893 4.52033 27.733 6.78699 27.733H10.787C13.1337 27.733 14.907 25.9596 14.907 23.613V19.613C14.907 17.2796 13.1337 15.5063 10.787 15.5063Z" fill="#FF6952"/>
<path d="M25.2134 15.5063H18.9601C19.0667 9.27964 20.2934 8.25297 24.1201 5.9863C24.5601 5.71964 24.7067 5.15964 24.4401 4.7063C24.1734 4.2663 23.6134 4.11964 23.1601 4.3863C18.6534 7.05297 17.0801 8.67964 17.0801 16.4396V23.6263C17.0801 25.9063 18.9334 27.7463 21.2001 27.7463H25.2001C27.5467 27.7463 29.3201 25.973 29.3201 23.6263V19.6263C29.3334 17.2796 27.5601 15.5063 25.2134 15.5063Z" fill="#FF6952"/>
</svg>
