<svg width="51" height="59" viewBox="0 0 51 59" fill="none" xmlns="http://www.w3.org/2000/svg">
<path d="M23.083 12.7064C28.3086 10.1092 32.3025 5.54554 34.1966 0.00732248C34.3179 -0.327465 36.2876 10.9183 42.9239 13.0869C42.9239 13.0869 34.8936 16.9521 32.9921 24.6066C32.9997 24.7131 32.5376 18.5271 23.083 12.7064Z" fill="white" fill-opacity="0.4"/>
<path d="M34.667 49.13C38.9695 46.9887 42.2539 43.2249 43.8034 38.6603C43.9018 38.3863 45.5155 47.6386 51.0003 49.4191C51.0003 49.4191 44.4018 52.5996 42.8337 58.8921C42.8109 58.9758 42.4321 53.8931 34.667 49.13Z" fill="white" fill-opacity="0.4"/>
<path d="M0 35.0687C4.15285 32.9982 7.32642 29.3679 8.83333 24.9642C8.92424 24.6903 10.4924 33.623 15.7879 35.3426C15.7879 35.3426 9.40909 38.3861 7.90152 44.4731C7.86364 44.5721 7.5 39.6644 0 35.0687Z" fill="white" fill-opacity="0.4"/>
</svg>
