<svg width="64" height="64" viewBox="0 0 64 64" fill="none" xmlns="http://www.w3.org/2000/svg">
<path opacity="0.4" d="M33.9949 21.9766L38.0216 30.1019C38.3256 30.7126 38.9093 31.1366 39.5867 31.2352L48.8829 32.5792C50.5896 32.8272 51.2693 34.918 50.032 36.1153L43.3093 42.6379C42.8186 43.1152 42.5947 43.8032 42.7094 44.4752L44.2481 53.4006C44.5601 55.2113 42.6561 56.5925 41.0268 55.7392L32.9626 51.5178C32.3573 51.2005 31.6373 51.2005 31.032 51.5178L22.9734 55.7339C21.3414 56.5873 19.4348 55.2058 19.7468 53.3925L21.2826 44.4725C21.4 43.7979 21.1734 43.1125 20.6827 42.6351L13.96 36.1125C12.7254 34.9152 13.4054 32.8219 15.1094 32.5766L24.4053 31.2325C25.0827 31.1338 25.6668 30.7098 25.9708 30.0992L29.9975 21.9739C30.8215 20.3285 33.1789 20.3286 33.9949 21.9766Z" fill="#FF6952"/>
<path d="M16 26C14.896 26 14 25.104 14 24V8C14 6.896 14.896 6 16 6C17.104 6 18 6.896 18 8V24C18 25.104 17.104 26 16 26ZM34 13.3333V8C34 6.896 33.104 6 32 6C30.896 6 30 6.896 30 8V13.3333C30 14.4373 30.896 15.3333 32 15.3333C33.104 15.3333 34 14.4373 34 13.3333ZM50 24V8C50 6.896 49.104 6 48 6C46.896 6 46 6.896 46 8V24C46 25.104 46.896 26 48 26C49.104 26 50 25.104 50 24Z" fill="#FF6952"/>
</svg>
