<svg width="14" height="14" viewBox="0 0 14 14" fill="none" xmlns="http://www.w3.org/2000/svg">
<path fill-rule="evenodd" clip-rule="evenodd" d="M12.6 4.13008V4.48008C12.6 8.26008 9.73 12.6701 4.41 12.6701C2.8 12.6701 1.26 12.1801 0 11.4101C0.21 11.4101 0.49 11.4801 0.7 11.4801C2.03 11.4801 3.29 10.9901 4.27 10.2201C3.01 10.2201 1.96 9.38008 1.61 8.26008C1.82 8.26008 1.96 8.33008 2.17 8.33008C2.45 8.33008 2.73 8.33008 2.94 8.26008C1.61 7.98008 0.7 6.86008 0.7 5.46008V5.39008C0.7 5.60008 1.47 5.74008 1.96 5.74008C1.19 5.25008 0.63 4.34008 0.63 3.36008C0.63 2.80008 0.77 2.31008 1.05 1.89008C2.45 3.64008 4.55 4.76008 7 4.90008C6.86 4.62008 6.79 4.41008 6.79 4.20008C6.79 2.59008 8.05 1.33008 9.66 1.33008C10.5 1.33008 11.2 1.68008 11.76 2.24008C12.39 2.10008 13.02 1.89008 13.58 1.54008C13.37 2.24008 12.88 2.80008 12.32 3.15008C12.88 3.08008 13.44 2.94008 14 2.73008C13.58 3.22008 13.16 3.71008 12.6 4.13008Z" fill="white"/>
</svg>
