<svg width="14" height="14" viewBox="0 0 14 14" fill="none" xmlns="http://www.w3.org/2000/svg">
<path fill-rule="evenodd" clip-rule="evenodd" d="M3.08 13.9306H0.07V4.27063H3.08V13.9306ZM1.54 3.08062C0.63 3.08062 0 2.45062 0 1.61063C0 0.770625 0.63 0.140625 1.61 0.140625C2.59 0.140625 3.15 0.770625 3.15 1.61063C3.15 2.45062 2.59 3.08062 1.54 3.08062ZM14 13.9306H10.99V8.61062C10.99 7.35062 10.57 6.51063 9.45 6.51063C8.61 6.51063 8.12 7.07063 7.91 7.63063C7.84 7.84063 7.84 8.12062 7.84 8.40062V13.9306H4.83V7.35063C4.83 6.16062 4.76 5.18062 4.76 4.27063H7.35L7.49 5.60063H7.56C7.98 4.97062 8.89 4.06062 10.5 4.06062C12.46 4.06062 13.93 5.39062 13.93 8.19062V13.9306H14Z" fill="white"/>
</svg>
