<svg width="14" height="14" viewBox="0 0 14 14" fill="none" xmlns="http://www.w3.org/2000/svg">
<path fill-rule="evenodd" clip-rule="evenodd" d="M6.99995 1.26395C8.86795 1.26395 9.08995 1.27095 9.82795 1.30395C10.51 1.33595 10.881 1.44995 11.128 1.54595C11.454 1.67295 11.687 1.82395 11.932 2.06895C12.177 2.31395 12.328 2.54695 12.455 2.87395C12.551 3.11995 12.665 3.49095 12.696 4.17395C12.73 4.91095 12.736 5.13195 12.736 7.00095C12.736 8.86895 12.73 9.09095 12.696 9.82895C12.665 10.511 12.551 10.882 12.456 11.129C12.328 11.455 12.176 11.688 11.932 11.933C11.7061 12.1653 11.431 12.344 11.127 12.456C10.88 12.552 10.51 12.666 9.82695 12.697C9.08995 12.731 8.86895 12.737 6.99995 12.737C5.13095 12.737 4.90995 12.731 4.17195 12.697C3.48995 12.666 3.11995 12.552 2.87195 12.457C2.56817 12.3445 2.29344 12.1655 2.06795 11.933C1.83566 11.7071 1.65694 11.432 1.54495 11.128C1.44895 10.881 1.33495 10.511 1.30395 9.82795C1.26995 9.09095 1.26395 8.86895 1.26395 7.00095C1.26395 5.13195 1.26995 4.91095 1.30395 4.17295C1.33495 3.49095 1.44895 3.12095 1.54395 2.87295C1.67195 2.54695 1.82395 2.31395 2.06795 2.06895C2.31295 1.82395 2.54595 1.67295 2.87295 1.54595C3.11895 1.44995 3.48995 1.33595 4.17295 1.30495C4.90995 1.27095 5.13095 1.26495 6.99995 1.26495M6.99995 0.00195312C5.09995 0.00195312 4.86095 0.00995313 4.11495 0.0439531C3.36995 0.0789531 2.85995 0.197953 2.41595 0.370953C1.94884 0.546547 1.52566 0.821952 1.17595 1.17795C0.820313 1.52776 0.545254 1.95093 0.369953 2.41795C0.196953 2.86095 0.0779531 3.37095 0.0439531 4.11495C0.00995312 4.86095 0.00195312 5.09995 0.00195312 7.00095C0.00195312 8.90095 0.00995312 9.13995 0.0439531 9.88595C0.0779531 10.631 0.196953 11.14 0.369953 11.585C0.547953 12.045 0.787953 12.435 1.17695 12.825C1.56595 13.213 1.95595 13.453 2.41695 13.631C2.86095 13.804 3.36995 13.923 4.11495 13.957C4.86095 13.991 5.09895 13.999 6.99995 13.999C8.89995 13.999 9.13895 13.991 9.88495 13.957C10.63 13.923 11.139 13.804 11.584 13.631C12.0511 13.4554 12.4742 13.18 12.824 12.824C13.1796 12.4741 13.4547 12.051 13.63 11.584C13.803 11.14 13.922 10.631 13.956 9.88595C13.99 9.13995 13.998 8.90095 13.998 7.00095C13.998 5.10095 13.99 4.86195 13.956 4.11595C13.922 3.37095 13.803 2.86195 13.63 2.41695C13.4544 1.94984 13.179 1.52666 12.823 1.17695C12.4731 0.821313 12.05 0.546254 11.583 0.370953C11.14 0.197953 10.63 0.0789531 9.88595 0.0449531C9.13995 0.0109531 8.89995 0.00295313 6.99995 0.00295313" fill="white"/>
<path fill-rule="evenodd" clip-rule="evenodd" d="M7.00023 3.40778C6.0473 3.40778 5.13341 3.78633 4.45959 4.46015C3.78577 5.13397 3.40723 6.04786 3.40723 7.00078C3.40723 7.9537 3.78577 8.8676 4.45959 9.54142C5.13341 10.2152 6.0473 10.5938 7.00023 10.5938C7.95315 10.5938 8.86704 10.2152 9.54086 9.54142C10.2147 8.8676 10.5932 7.9537 10.5932 7.00078C10.5932 6.04786 10.2147 5.13397 9.54086 4.46015C8.86704 3.78633 7.95315 3.40778 7.00023 3.40778ZM7.00023 9.33378C6.38148 9.33378 5.78807 9.08798 5.35055 8.65046C4.91302 8.21294 4.66723 7.61953 4.66723 7.00078C4.66723 6.38203 4.91302 5.78862 5.35055 5.3511C5.78807 4.91358 6.38148 4.66778 7.00023 4.66778C7.61898 4.66778 8.21238 4.91358 8.64991 5.3511C9.08743 5.78862 9.33323 6.38203 9.33323 7.00078C9.33323 7.61953 9.08743 8.21294 8.64991 8.65046C8.21238 9.08798 7.61898 9.33378 7.00023 9.33378ZM11.5752 3.26578C11.5752 3.48856 11.4867 3.70222 11.3292 3.85975C11.1717 4.01728 10.958 4.10578 10.7352 4.10578C10.5124 4.10578 10.2988 4.01728 10.1413 3.85975C9.98373 3.70222 9.89523 3.48856 9.89523 3.26578C9.89523 3.043 9.98373 2.82934 10.1413 2.67181C10.2988 2.51428 10.5124 2.42578 10.7352 2.42578C10.958 2.42578 11.1717 2.51428 11.3292 2.67181C11.4867 2.82934 11.5752 3.043 11.5752 3.26578Z" fill="white"/>
</svg>
