<svg width="14" height="14" viewBox="0 0 14 14" fill="none" xmlns="http://www.w3.org/2000/svg">
<path d="M13.707 3.60836C13.6279 3.31057 13.472 3.03875 13.255 2.82009C13.0379 2.60144 12.7672 2.4436 12.47 2.36236C11.379 2.06836 7 2.06836 7 2.06836C7 2.06836 2.622 2.06836 1.53 2.36236C1.23279 2.44381 0.962098 2.60171 0.74489 2.82032C0.527683 3.03893 0.371536 3.31063 0.292 3.60836C0 4.70736 0 7.00036 0 7.00036C0 7.00036 0 9.29336 0.292 10.3924C0.371321 10.6901 0.527412 10.9618 0.744666 11.1803C0.96192 11.3987 1.23272 11.5564 1.53 11.6374C2.622 11.9324 7 11.9324 7 11.9324C7 11.9324 11.378 11.9324 12.469 11.6374C12.7663 11.5567 13.0372 11.3991 13.2543 11.1806C13.4714 10.962 13.6272 10.6902 13.706 10.3924C14 9.29336 14 7.00036 14 7.00036C14 7.00036 14 4.70736 13.707 3.60836ZM5.568 9.08236V4.91836L9.228 7.00036L5.568 9.08236Z" fill="white"/>
</svg>
