<svg width="58" height="58" viewBox="0 0 58 58" fill="none" xmlns="http://www.w3.org/2000/svg">
<path d="M24.1882 25.3753C29.5269 25.3753 33.8548 21.0474 33.8548 15.7087C33.8548 10.3699 29.5269 6.04199 24.1882 6.04199C18.8494 6.04199 14.5215 10.3699 14.5215 15.7087C14.5215 21.0474 18.8494 25.3753 24.1882 25.3753Z" fill="#FF6952"/>
<path opacity="0.4" d="M38.7638 33.954C36.6613 31.7065 33.4953 30.208 29.0003 30.208H19.3337C9.52199 30.208 6.04199 37.3856 6.04199 43.5481C6.04199 49.0581 8.96616 51.958 14.5003 51.958H32.8427C33.2294 51.958 33.4761 51.668 33.5921 51.0397L34.0753 48.2604C34.1236 48.0188 34.0512 47.7771 33.8578 47.6079L31.6586 45.4812C30.3536 44.2487 29.8702 42.4121 30.4261 40.6963C30.9819 38.9563 32.4563 37.7239 34.2446 37.4822L37.2654 37.0471C37.2654 37.0471 37.7488 37.0011 37.8938 36.7087L38.8602 34.7755C38.8602 34.7755 38.9811 34.5821 38.957 34.3162C38.9328 34.2196 38.8846 34.0748 38.7638 33.954Z" fill="#FF6952"/>
<path d="M44.537 35.6697L46.6226 39.8071C46.7797 40.1189 47.0817 40.334 47.4321 40.3847L52.2463 41.0685C53.1284 41.1942 53.4811 42.2599 52.8407 42.8689L49.3609 46.1895C49.1071 46.4312 48.991 46.7815 49.0514 47.1247L49.8464 51.6704C50.0084 52.5911 49.0225 53.2945 48.1791 52.8619L44.003 50.7134C43.6888 50.5515 43.3165 50.5515 43.0024 50.7134L38.829 52.8619C37.9831 53.2969 36.9947 52.5912 37.1566 51.668L37.9516 47.127C38.012 46.7838 37.8962 46.4335 37.6424 46.1919L34.1623 42.8713C33.5219 42.2623 33.8746 41.1966 34.7567 41.0709L39.5709 40.3871C39.9213 40.3363 40.2233 40.1212 40.3804 39.8095L42.466 35.672C42.8938 34.831 44.1141 34.8311 44.537 35.6697Z" fill="#FF6952"/>
</svg>
