<svg width="50" height="50" viewBox="0 0 50 50" fill="none" xmlns="http://www.w3.org/2000/svg">
<path opacity="0.4" d="M28.7187 27.8936H21.2831C13.6477 27.8936 10.9395 33.4601 10.9395 38.2268C10.9395 42.4601 13.2957 44.7894 17.5707 44.7894H32.4332C36.7082 44.7894 39.0645 42.4581 39.0645 38.2268C39.0624 33.4622 36.3542 27.8936 28.7187 27.8936Z" fill="white"/>
<path d="M25.017 23.9833C29.0628 23.9833 32.3524 20.7062 32.3524 16.6791C32.3524 12.65 29.0607 9.375 25.017 9.375C20.9732 9.375 17.6836 12.652 17.6836 16.6791C17.6836 20.7062 20.9711 23.9833 25.017 23.9833Z" fill="white"/>
<path opacity="0.4" d="M46.875 26.3544C46.875 29.6044 45.0832 31.3959 41.8124 31.3959H40.9375C40.6667 31.3959 40.4583 31.2502 40.3541 31.0211C38.8333 28.2711 36.2708 26.1043 32.5833 25.2293C32.1042 25.1043 31.8958 24.521 32.2499 24.1877C33.6874 22.8335 34.7292 21.0628 35.1875 19.0836C35.25 18.8128 35.5001 18.6045 35.7918 18.6045H39.1459C44.8542 18.6045 46.875 22.7919 46.875 26.3544Z" fill="white"/>
<path d="M42.042 10.7707C42.042 13.854 39.5419 16.3539 36.4794 16.3539C36.3252 16.3539 36.1731 16.3455 36.0252 16.333C35.8335 16.3164 35.692 16.254 35.5962 16.1519C35.5003 16.0499 35.4462 15.952 35.4337 15.7936C35.2107 12.979 33.8503 10.4893 31.8107 8.77051C31.6836 8.66217 31.621 8.58935 31.5897 8.45185C31.5605 8.3206 31.5564 8.17055 31.6335 8.03097C32.5876 6.34555 34.4002 5.20605 36.4794 5.20605C39.5419 5.20814 42.042 7.70818 42.042 10.7707Z" fill="white"/>
<path opacity="0.4" d="M3.125 26.3544C3.125 29.6044 4.91678 31.3959 8.18761 31.3959H9.06245C9.33328 31.3959 9.54168 31.2502 9.64584 31.0211C11.1667 28.2711 13.7291 26.1043 17.4166 25.2293C17.8958 25.1043 18.1042 24.521 17.75 24.1877C16.3125 22.8335 15.2708 21.0628 14.8125 19.0836C14.75 18.8128 14.4999 18.6045 14.2082 18.6045H10.8541C5.14575 18.6045 3.125 22.7919 3.125 26.3544Z" fill="white"/>
<path d="M7.95801 10.7707C7.95801 13.854 10.4581 16.3539 13.5206 16.3539C13.6748 16.3539 13.8269 16.3455 13.9748 16.333C14.1665 16.3164 14.308 16.254 14.4038 16.1519C14.4997 16.0499 14.5538 15.952 14.5663 15.7936C14.7893 12.979 16.1497 10.4893 18.1893 8.77051C18.3164 8.66217 18.379 8.58935 18.4103 8.45185C18.4394 8.3206 18.4436 8.17055 18.3665 8.03097C17.4124 6.34555 15.5998 5.20605 13.5206 5.20605C10.4581 5.20814 7.95801 7.70818 7.95801 10.7707Z" fill="white"/>
</svg>
