<svg width="58" height="58" viewBox="0 0 58 58" fill="none" xmlns="http://www.w3.org/2000/svg">
<path opacity="0.4" d="M39.8753 18.125H35.042C29.6915 18.125 27.792 22.0425 27.792 25.3968C27.792 28.4539 29.5537 30.2083 32.6277 30.2083H42.2896C45.3612 30.2083 47.1253 28.4539 47.1253 25.3968C47.1253 22.0425 45.2258 18.125 39.8753 18.125Z" fill="#FF6952"/>
<path d="M37.4707 14.5C40.4738 14.5 42.9082 12.0655 42.9082 9.0625C42.9082 6.05945 40.4738 3.625 37.4707 3.625C34.4677 3.625 32.0332 6.05945 32.0332 9.0625C32.0332 12.0655 34.4677 14.5 37.4707 14.5Z" fill="#FF6952"/>
<path opacity="0.4" d="M20.5413 42.292H15.708C10.3575 42.292 8.45801 46.2095 8.45801 49.5638C8.45801 52.6209 10.2197 54.3753 13.2937 54.3753H22.9556C26.0272 54.3753 27.7913 52.6209 27.7913 49.5638C27.7913 46.2095 25.8918 42.292 20.5413 42.292Z" fill="#FF6952"/>
<path d="M18.1367 38.667C21.1398 38.667 23.5742 36.2325 23.5742 33.2295C23.5742 30.2264 21.1398 27.792 18.1367 27.792C15.1337 27.792 12.6992 30.2264 12.6992 33.2295C12.6992 36.2325 15.1337 38.667 18.1367 38.667Z" fill="#FF6952"/>
<path d="M7.25256 28.6499C7.18731 28.6499 7.11957 28.6474 7.05432 28.6401C6.05866 28.5314 5.33863 27.635 5.4498 26.6418C6.32463 18.6233 11.1628 11.7211 18.391 8.1734C18.9541 7.8979 19.6164 7.9317 20.148 8.26279C20.6797 8.59387 21.0036 9.17649 21.0036 9.80241V17.1731C21.0036 18.1736 20.1916 18.9856 19.1911 18.9856C18.1906 18.9856 17.3786 18.1736 17.3786 17.1731V12.9657C12.7289 16.1992 9.6813 21.2791 9.05297 27.038C8.94905 27.9636 8.16606 28.6499 7.25256 28.6499Z" fill="#FF6952"/>
<path d="M38.8115 50.2807C38.478 50.2807 38.1467 50.1888 37.8542 50.0075C37.3226 49.6764 36.999 49.0941 36.999 48.4682V41.0972C36.999 40.0967 37.811 39.2847 38.8115 39.2847C39.812 39.2847 40.624 40.0967 40.624 41.0972V45.3046C45.2737 42.0711 48.321 36.9913 48.9493 31.2323C49.0581 30.2367 49.9475 29.5263 50.9456 29.6278C51.9413 29.7366 52.6613 30.6332 52.5501 31.6265C51.6753 39.6425 46.8372 46.5469 39.6089 50.0946C39.3552 50.2178 39.0846 50.2807 38.8115 50.2807Z" fill="#FF6952"/>
</svg>
